# xmcd
#
# Track frame offsets: 
#        150
#        23027
#        51610
#        77530
#        99277
#        120297
#        141242
#        168197
#        191230
#        211032
#
# Disc length: 3114 seconds
#
# Revision: 3
# Processed by: cddbd v1.5.2PL0 Copyright (c) Steve Scherf et al.
# Submitted via: ExactAudioCopy v1.3
#
DISCID=7c0c280a
DTITLE=Rude Boys - Rude Awakening
DYEAR=1990
DGENRE=R&B
TTITLE0=Come on let's do this
TTITLE1=Written all over your face
TTITLE2=I feel for you
TTITLE3=Heaven
TTITLE4=Pressure
TTITLE5=Never get enough of it
TTITLE6=I'm going thru
TTITLE7=Are you lonely for me
TTITLE8=I need you
TTITLE9=Fool for you
EXTD=
EXTT0=
EXTT1=
EXTT2=
EXTT3=
EXTT4=
EXTT5=
EXTT6=
EXTT7=
EXTT8=
EXTT9=
PLAYORDER=
